<svg width="24" height="24" viewBox="0 0 24 24" fill="none" xmlns="http://www.w3.org/2000/svg">
<g clip-path="url(#clip0_4_241)">
<path fill-rule="evenodd" clip-rule="evenodd" d="M12.0103 -0.5C5.09245 -0.5 -0.5 5.13367 -0.5 12.1033C-0.5 17.6745 3.08327 22.3904 8.05422 24.0595C8.67572 24.185 8.90337 23.7883 8.90337 23.4546C8.90337 23.1625 8.88288 22.1609 8.88288 21.1174C5.40281 21.8688 4.67812 19.615 4.67812 19.615C4.11885 18.1544 3.29018 17.779 3.29018 17.779C2.15116 17.0069 3.37315 17.0069 3.37315 17.0069C4.63663 17.0904 5.29961 18.3006 5.29961 18.3006C6.4179 20.2201 8.2199 19.6778 8.94486 19.3438C9.04831 18.53 9.37993 17.9667 9.73203 17.6537C6.95642 17.3616 4.03613 16.2766 4.03613 11.4355C4.03613 10.0583 4.53292 8.93154 5.3201 8.05525C5.1959 7.74232 4.76083 6.44837 5.44455 4.71653C5.44455 4.71653 6.50086 4.3826 8.88263 6.01022C9.90235 5.73434 10.954 5.594 12.0103 5.59282C13.0667 5.59282 14.1435 5.73904 15.1378 6.01022C17.5198 4.3826 18.5761 4.71653 18.5761 4.71653C19.2599 6.44837 18.8245 7.74232 18.7003 8.05525C19.5083 8.93154 19.9846 10.0583 19.9846 11.4355C19.9846 16.2766 17.0643 17.3406 14.2679 17.6537C14.7237 18.0502 15.1171 18.8012 15.1171 19.9907C15.1171 21.6808 15.0966 23.0372 15.0966 23.4544C15.0966 23.7883 15.3245 24.185 15.9457 24.0597C20.9167 22.3901 24.4999 17.6745 24.4999 12.1033C24.5204 5.13367 18.9075 -0.5 12.0103 -0.5Z" fill="#24292F"/>
</g>
<defs>
<clipPath id="clip0_4_241">
<rect width="24" height="24" fill="white"/>
</clipPath>
</defs>
</svg>
