<svg width="62" height="62" viewBox="0 0 62 62" fill="none" xmlns="http://www.w3.org/2000/svg">
<path fill-rule="evenodd" clip-rule="evenodd" d="M3.77898 3.7791C0.166626 7.39145 0.166626 13.2054 0.166626 24.8334V37.1667C0.166626 48.7947 0.166626 54.6087 3.77898 58.2211C5.79358 60.2357 8.49297 61.1267 12.5037 61.5208C12.7035 53.1507 20.908 46.4167 31 46.4167C41.092 46.4167 49.2965 53.1507 49.4963 61.5208C53.507 61.1267 56.2063 60.2357 58.2209 58.2211C61.8333 54.6087 61.8333 48.7947 61.8333 37.1667V24.8334C61.8333 13.2054 61.8333 7.39145 58.2209 3.7791C54.6086 0.166748 48.7946 0.166748 37.1666 0.166748H24.8333C13.2053 0.166748 7.39133 0.166748 3.77898 3.7791ZM31 34.0834C36.1086 34.0834 40.25 29.942 40.25 24.8334C40.25 19.7247 36.1086 15.5834 31 15.5834C25.8914 15.5834 21.75 19.7247 21.75 24.8334C21.75 29.942 25.8914 34.0834 31 34.0834Z" fill="#7E869E" fill-opacity="0.25"/>
</svg>
