<svg width="268" height="299" viewBox="0 0 268 299" fill="none" xmlns="http://www.w3.org/2000/svg">
<path d="M199.928 54.3104C181.543 44.7723 159.519 41.9019 139.639 48.2825C121.645 54.0652 106.991 67.7594 92.3689 80.1799C77.4199 92.8694 58.96 101.439 45.8334 116.55C27.8184 137.325 24.12 169.832 36.5445 195.127C49.312 221.164 75.04 232.766 100.28 236.21C133.116 240.665 173.107 236.736 197.929 209.982C210.734 196.18 220.35 178.993 227.119 160.701C233.985 142.127 240.074 123.804 236.129 103.364C231.825 81.0709 218.195 63.8006 199.928 54.3104Z" fill="#90CAF9"/>
<path opacity="0.7" d="M199.928 54.3104C181.543 44.7723 159.519 41.9019 139.639 48.2825C121.645 54.0652 106.991 67.7594 92.3689 80.1799C77.4199 92.8694 58.96 101.439 45.8334 116.55C27.8184 137.325 24.12 169.832 36.5445 195.127C49.312 221.164 75.04 232.766 100.28 236.21C133.116 240.665 173.107 236.736 197.929 209.982C210.734 196.18 220.35 178.993 227.119 160.701C233.985 142.127 240.074 123.804 236.129 103.364C231.825 81.0709 218.195 63.8006 199.928 54.3104Z" fill="white"/>
<path d="M132.43 251.973C195.139 251.973 245.976 242.142 245.976 230.015C245.976 217.887 195.139 208.056 132.43 208.056C69.7197 208.056 18.8833 217.887 18.8833 230.015C18.8833 242.142 69.7197 251.973 132.43 251.973Z" fill="#90CAF9"/>
<path opacity="0.5" d="M132.43 251.973C195.139 251.973 245.976 242.142 245.976 230.015C245.976 217.887 195.139 208.056 132.43 208.056C69.7197 208.056 18.8833 217.887 18.8833 230.015C18.8833 242.142 69.7197 251.973 132.43 251.973Z" fill="white"/>
<path d="M17.5486 203.601L17.5165 204.618L17.7791 208.068L72.2367 225.171L120.45 160.396L120.021 154.822L108.91 154.529L17.5486 203.601Z" fill="#90CAF9"/>
<path d="M119.855 154.655L67.3805 140.291L17.5486 203.601L70.9395 220.351L119.855 154.655Z" fill="white" stroke="#263238" stroke-linecap="round" stroke-linejoin="round"/>
<path d="M119.855 154.655L120.311 160.587L72.2367 225.171L70.9396 220.351" stroke="#263238" stroke-linecap="round" stroke-linejoin="round"/>
<path d="M72.2367 225.171L17.7791 208.068L17.4521 203.763" stroke="#263238" stroke-linecap="round" stroke-linejoin="round"/>
<path d="M71.5774 222.719L25.9155 208.409" stroke="#263238" stroke-linecap="round" stroke-linejoin="round"/>
<path d="M120.032 158.823L94.3628 192.131" stroke="#263238" stroke-linecap="round" stroke-linejoin="round"/>
<path d="M91.4577 195.241L71.5078 221.822" stroke="#263238" stroke-linecap="round" stroke-linejoin="round"/>
<path d="M63.8322 154.099C64.663 155.773 66.8445 156.198 68.7044 155.043C70.5643 153.889 71.3844 151.599 70.5536 149.925C69.7228 148.25 67.5359 147.832 65.676 148.986C63.8161 150.14 62.996 152.43 63.8322 154.099Z" stroke="#263238" stroke-miterlimit="10"/>
<path d="M105.999 166.393L71.9365 155.905" stroke="#263238" stroke-linecap="round" stroke-linejoin="round"/>
<path d="M107.12 164.904L73.0514 154.422" stroke="#263238" stroke-linecap="round" stroke-linejoin="round"/>
<path d="M54.0449 166.316C54.8811 167.99 57.0626 168.415 58.9171 167.261C60.7717 166.106 61.5971 163.816 60.7663 162.142C59.9355 160.467 57.7487 160.049 55.8941 161.203C54.0395 162.357 53.2087 164.647 54.0449 166.316Z" stroke="#263238" stroke-miterlimit="10"/>
<path d="M98.6829 177.57L65.0864 167.231" stroke="#263238" stroke-linecap="round" stroke-linejoin="round"/>
<path d="M99.8407 176.099L66.2067 165.748" stroke="#263238" stroke-linecap="round" stroke-linejoin="round"/>
<path d="M91.4576 186.283L56.8213 175.615" stroke="#263238" stroke-linecap="round" stroke-linejoin="round"/>
<path d="M92.5994 184.806L57.9363 174.132" stroke="#263238" stroke-linecap="round" stroke-linejoin="round"/>
<path d="M48.3045 180.734C50.1613 179.58 50.9892 177.288 50.1537 175.614C49.3182 173.941 47.1356 173.52 45.2788 174.674C43.422 175.828 42.5941 178.12 43.4296 179.793C44.2651 181.466 46.4477 181.888 48.3045 180.734Z" stroke="#263238" stroke-miterlimit="10"/>
<path d="M83.632 196.323L48.9796 185.661" stroke="#263238" stroke-linecap="round" stroke-linejoin="round"/>
<path d="M84.7255 194.834L50.0999 184.178" stroke="#263238" stroke-linecap="round" stroke-linejoin="round"/>
<path d="M32.101 194.224C32.9318 195.893 35.1187 196.317 36.9732 195.163C38.8278 194.009 39.6532 191.719 38.8224 190.044C37.9916 188.37 35.8047 187.951 33.9448 189.105C32.0849 190.26 31.2648 192.556 32.101 194.224Z" stroke="#263238" stroke-miterlimit="10"/>
<path d="M74.0859 208.792L40.0231 198.303" stroke="#263238" stroke-linecap="round" stroke-linejoin="round"/>
<path d="M75.2061 207.303L41.1433 196.82" stroke="#263238" stroke-linecap="round" stroke-linejoin="round"/>
<path d="M66.0352 149.697C66.0352 149.697 65.6975 153.333 66.3782 153.794C67.3216 152.747 72.0169 148.005 72.0169 148.005" stroke="#90CAF9" stroke-width="3" stroke-linecap="round" stroke-linejoin="round"/>
<path d="M46.096 176.41C46.096 176.41 45.4367 179.998 46.096 180.53C47.1305 179.591 52.2278 175.393 52.2278 175.393" stroke="#90CAF9" stroke-width="3" stroke-linecap="round" stroke-linejoin="round"/>
<path d="M58.5044 168.803L56.489 159.475" stroke="#263238" stroke-width="3" stroke-linecap="round" stroke-linejoin="round"/>
<path d="M37.0965 197.065L35.0812 187.736" stroke="#263238" stroke-width="3" stroke-linecap="round" stroke-linejoin="round"/>
<path d="M53.2087 167.231L61.0558 161.149" stroke="#263238" stroke-width="3" stroke-linecap="round" stroke-linejoin="round"/>
<path d="M31.1577 195.175L39.0048 189.094" stroke="#263238" stroke-width="3" stroke-linecap="round" stroke-linejoin="round"/>
<path d="M60.7663 136.344L97.4716 186.456C96.5008 188.496 96.13 190.825 96.4117 193.113C96.6934 195.402 97.6133 197.533 99.0411 199.205C100.469 200.878 102.332 202.006 104.367 202.431C106.402 202.857 108.505 202.556 110.378 201.574L102.73 191.109L106.423 187.772L114.082 198.249C115.329 196.396 116.019 194.151 116.055 191.835C116.091 189.519 115.471 187.249 114.283 185.349C113.095 183.449 111.4 182.015 109.439 181.253C107.478 180.491 105.351 180.439 103.362 181.104L66.6516 130.932C66.6141 130.878 67.611 128.145 67.6807 127.793C68.4043 124.246 68.1256 120.18 66.2013 117.154C63.0711 112.239 57.6629 111.904 52.9568 113.907C51.7966 114.38 50.6973 115.021 49.6872 115.815L59.1261 127.452L57.5181 129.335L48.5777 116.927C44.7721 118.296 42.6817 123.29 44.965 130.4C45.501 132.044 50.861 133.551 52.0295 134.52C53.261 135.551 54.6918 136.245 56.2072 136.547C57.7226 136.849 59.2803 136.751 60.7556 136.26L60.7663 136.344Z" fill="#263238"/>
<path d="M56.709 136.344L93.4143 186.456C92.4446 188.496 92.0745 190.824 92.3563 193.111C92.638 195.398 93.5574 197.528 94.9842 199.2C96.411 200.872 98.273 202.001 100.307 202.427C102.34 202.853 104.443 202.554 106.316 201.574L98.6671 191.109L102.376 187.772L110.041 198.249C111.287 196.396 111.978 194.151 112.014 191.835C112.05 189.519 111.43 187.249 110.242 185.349C109.054 183.449 107.358 182.015 105.397 181.253C103.437 180.491 101.31 180.439 99.321 181.104L62.6103 130.932C63.5811 128.892 63.9519 126.563 63.6702 124.275C63.3885 121.987 62.4686 119.856 61.0408 118.183C59.6129 116.511 57.7496 115.382 55.7148 114.957C53.68 114.532 51.5769 114.832 49.7035 115.815L57.1539 125.981L53.4501 129.311L45.9997 119.145C44.752 120.994 44.0593 123.235 44.0205 125.548C43.9817 127.862 44.5987 130.13 45.7835 132.029C46.9683 133.928 48.6604 135.362 50.6185 136.125C52.5765 136.888 54.7005 136.941 56.6875 136.278L56.709 136.344Z" fill="#90CAF9" stroke="#263238" stroke-width="1.25654" stroke-linecap="round" stroke-linejoin="round"/>
<path d="M60.3804 133.569C60.3814 133.816 60.317 134.057 60.1951 134.262C60.0732 134.467 59.8995 134.628 59.6959 134.723C59.4923 134.818 59.2679 134.843 59.0513 134.796C58.8347 134.749 58.6355 134.631 58.4791 134.457C58.3226 134.283 58.2159 134.062 58.1725 133.82C58.129 133.579 58.1508 133.328 58.235 133.101C58.3192 132.873 58.4621 132.678 58.6456 132.541C58.829 132.405 59.0448 132.331 59.2655 132.331C59.5603 132.331 59.843 132.462 60.0519 132.694C60.2609 132.926 60.379 133.24 60.3804 133.569Z" fill="#263238"/>
<path d="M80.5875 166.071L93.2586 183.676" stroke="#263238" stroke-width="1.25654" stroke-linecap="round" stroke-linejoin="round"/>
<path d="M74.906 158.177L78.256 162.829" stroke="#263238" stroke-width="1.25654" stroke-linecap="round" stroke-linejoin="round"/>
<path d="M215.869 251.25L211.254 251.621L206.499 251.997L114.768 259.281L100.977 254.461L95.0811 252.404L100.768 249.366L113.702 242.37L204.58 235.158L209.94 234.727L214.834 234.344L215.059 234.942C217.062 240.097 217.349 245.88 215.869 251.25Z" fill="#90CAF9"/>
<path d="M214.025 245.893L113.582 253.454L113.708 255.536L214.151 247.975L214.025 245.893Z" fill="#263238"/>
<path d="M212.921 238.302L112.478 245.863L112.604 247.946L213.047 240.385L212.921 238.302Z" fill="#263238"/>
<path d="M215.869 251.25L211.254 251.62L206.033 252.033C206.457 245.455 205.208 237.717 204.564 235.128L209.924 234.697L214.818 234.314L215.043 234.912C217.058 240.073 217.351 245.869 215.869 251.25Z" fill="white"/>
<path d="M114.768 259.281L100.977 254.461L95.0811 252.404L100.768 249.366L113.702 242.369C119.169 251.937 114.768 259.281 114.768 259.281Z" fill="white"/>
<path d="M100.977 254.461L95.0811 252.404L100.768 249.366C101.331 250.994 101.404 252.782 100.977 254.461Z" fill="#263238"/>
<path d="M114.768 259.281C114.768 259.281 119.48 250.909 113.696 242.34" stroke="#263238" stroke-linecap="round" stroke-linejoin="round"/>
<path d="M215.869 251.25L211.254 251.62C211.35 250.897 211.425 250.173 211.479 249.456C211.732 244.471 211.197 239.475 209.898 234.697L214.791 234.314L215.016 234.912C217.043 240.075 217.345 245.877 215.869 251.268V251.25Z" fill="#263238"/>
<path d="M215.869 251.25L114.768 259.281L100.977 254.461L95.0811 252.404L100.768 249.366L113.702 242.37L214.807 234.344L215.032 234.942C217.057 240.108 217.359 245.911 215.885 251.304L215.869 251.25Z" stroke="#263238" stroke-linecap="round" stroke-linejoin="round"/>
<path opacity="0.1" d="M215.869 251.25L211.254 251.62C211.35 250.897 211.425 250.173 211.479 249.456L216.737 242.656C216.928 245.556 216.633 248.47 215.869 251.25Z" fill="white"/>
<path d="M204.564 235.128C204.564 235.128 206.666 245.892 206.033 252.033" stroke="#263238" stroke-miterlimit="10"/>
<path d="M194.466 97.9165C194.499 97.9299 194.535 97.9313 194.569 97.9205C194.602 97.9098 194.632 97.8874 194.654 97.8567L196.691 94.8248C196.712 94.7942 196.724 94.7563 196.724 94.7172C196.724 94.6781 196.712 94.6402 196.691 94.6095L194.82 92.0202C195.267 90.962 195.605 89.8506 195.828 88.7073L198.776 87.9418C198.81 87.933 198.842 87.9119 198.865 87.8818C198.888 87.8516 198.902 87.814 198.904 87.7744L199.001 83.9891C199.002 83.9495 198.991 83.9107 198.969 83.8791C198.948 83.8476 198.917 83.8252 198.883 83.8156L195.967 82.8887C195.663 80.8742 194.996 78.9496 194.005 77.2317L195.64 74.3314C195.662 74.3022 195.675 74.2651 195.675 74.2267C195.675 74.1884 195.662 74.1513 195.64 74.1221L193.303 71.3653C193.279 71.3365 193.247 71.3173 193.212 71.3108C193.177 71.3044 193.141 71.3109 193.11 71.3294L190.43 73.0158C189.594 72.3569 188.695 71.8033 187.75 71.3653L187.611 67.9029C187.61 67.8631 187.595 67.8252 187.57 67.7965C187.546 67.7678 187.512 67.7503 187.477 67.7474L184.154 66.9819C184.119 66.9733 184.084 66.9774 184.052 66.9936C184.02 67.0098 183.993 67.0372 183.977 67.0716L182.621 70.2052C181.606 70.1929 180.594 70.3073 179.603 70.546L177.711 67.7833C177.689 67.7532 177.659 67.7314 177.625 67.7207C177.592 67.71 177.556 67.711 177.523 67.7235L174.404 69.2304C174.372 69.2464 174.346 69.2728 174.329 69.306C174.312 69.3392 174.304 69.3776 174.307 69.4158L174.806 72.8304C174.2 73.2885 173.628 73.8005 173.096 74.3613C172.898 74.5646 172.705 74.7858 172.485 75.049L169.537 74.0144C169.504 74.0027 169.468 74.0034 169.435 74.0164C169.402 74.0293 169.374 74.0538 169.355 74.0862L167.564 77.3094C167.543 77.34 167.531 77.378 167.531 77.417C167.531 77.4561 167.543 77.494 167.564 77.5247L169.708 79.9705C169.341 81.047 169.084 82.1664 168.942 83.3073L166.042 84.318C166.01 84.3321 165.982 84.3567 165.961 84.3886C165.941 84.4206 165.93 84.4584 165.93 84.4974L166.139 88.2887C166.142 88.3268 166.156 88.3627 166.179 88.3908C166.202 88.419 166.233 88.4377 166.267 88.4442L169.21 89.09C169.462 90.2307 169.832 91.3345 170.314 92.379L168.502 95.082C168.48 95.1135 168.468 95.1525 168.468 95.1926C168.468 95.2327 168.48 95.2716 168.502 95.3032L170.614 98.2932C170.638 98.3096 170.666 98.3182 170.695 98.3182C170.723 98.3182 170.751 98.3096 170.775 98.2932L173.455 96.9597C174.254 97.7387 175.132 98.411 176.071 98.963L175.958 102.246C175.959 102.284 175.97 102.322 175.99 102.353C176.01 102.384 176.038 102.407 176.071 102.419L179.33 103.508C179.363 103.52 179.398 103.518 179.43 103.504C179.463 103.49 179.49 103.464 179.506 103.43L181.029 100.631C182.088 100.75 183.156 100.734 184.213 100.584L185.821 103.346C185.841 103.378 185.869 103.401 185.902 103.413C185.935 103.425 185.97 103.424 186.003 103.412L189.219 102.216C189.251 102.203 189.279 102.178 189.297 102.146C189.316 102.113 189.324 102.075 189.321 102.037L189.133 98.7597C190.055 98.179 190.913 97.4806 191.69 96.6786L194.466 97.9165ZM176.778 78.7147C177.976 77.4576 179.482 76.6247 181.104 76.3212C182.726 76.0177 184.393 76.2572 185.893 77.0095C187.393 77.7618 188.66 78.9931 189.534 80.548C190.407 82.1029 190.848 83.9118 190.801 85.7461C190.754 87.5805 190.221 89.3582 189.269 90.8548C188.317 92.3513 186.989 93.4998 185.453 94.155C183.916 94.8103 182.24 94.943 180.636 94.5364C179.032 94.1299 177.572 93.2023 176.441 91.8707C175.686 90.9845 175.095 89.9409 174.702 88.7995C174.309 87.6582 174.122 86.4416 174.152 85.2195C174.181 83.9974 174.426 82.7937 174.873 81.6775C175.32 80.5613 175.96 79.5545 176.757 78.7147H176.778Z" fill="#263238"/>
<path d="M163.92 101.217C163.946 101.186 163.96 101.144 163.96 101.101C163.96 101.058 163.946 101.016 163.92 100.984L162.183 99.1603C162.546 98.3001 162.823 97.3976 163.008 96.4693L165.404 96.2421C165.443 96.2407 165.479 96.2234 165.507 96.1936C165.535 96.1638 165.552 96.1235 165.554 96.0806L165.662 92.1398C165.66 92.0968 165.645 92.0559 165.618 92.025C165.591 91.9941 165.555 91.9753 165.517 91.9724L163.11 91.5837C162.856 89.931 162.31 88.3514 161.502 86.9372L163.083 84.8203C163.109 84.7893 163.123 84.7488 163.123 84.7067C163.123 84.6645 163.109 84.624 163.083 84.593L160.655 81.7286C160.627 81.6983 160.59 81.6813 160.551 81.6813C160.512 81.6813 160.474 81.6983 160.446 81.7286L158.458 83.3791C157.788 82.8485 157.069 82.3994 156.314 82.0396L156.533 79.2768C156.538 79.2327 156.529 79.1881 156.506 79.1517C156.483 79.1152 156.449 79.0895 156.41 79.0795L152.942 78.2841C152.905 78.2747 152.867 78.2812 152.834 78.3022C152.801 78.3233 152.777 78.3574 152.765 78.3978L151.983 81.0469C151.158 81.0394 150.335 81.1317 149.528 81.322L148.284 78.93C148.264 78.8943 148.233 78.8673 148.197 78.8532C148.161 78.8392 148.122 78.8388 148.086 78.8522L144.843 80.419C144.808 80.4351 144.778 80.4654 144.762 80.5041C144.745 80.5427 144.741 80.587 144.752 80.6283L145.476 83.2834C144.981 83.6636 144.512 84.0833 144.071 84.5392C143.916 84.7067 143.761 84.8741 143.589 85.0894L141.343 83.8934C141.309 83.8753 141.269 83.872 141.233 83.8841C141.196 83.8962 141.165 83.9229 141.145 83.9592L139.242 87.308C139.219 87.3437 139.209 87.3883 139.215 87.432C139.221 87.4757 139.242 87.5149 139.274 87.5412L141.198 89.2275C140.9 90.1043 140.688 91.0146 140.566 91.9425L138.17 92.4089C138.132 92.4162 138.097 92.4393 138.073 92.4737C138.05 92.508 138.038 92.551 138.041 92.5943L138.245 96.5351C138.247 96.5776 138.263 96.6179 138.29 96.6485C138.316 96.6792 138.352 96.6984 138.39 96.7025L140.786 96.8461C140.99 97.772 141.288 98.6689 141.676 99.5191L139.987 101.397C139.96 101.428 139.945 101.47 139.945 101.513C139.945 101.557 139.96 101.599 139.987 101.63L142.185 104.704C142.213 104.734 142.25 104.751 142.289 104.751C142.328 104.751 142.366 104.734 142.394 104.704L144.404 103.316C145.063 103.945 145.782 104.49 146.548 104.943L146.135 107.532C146.128 107.574 146.135 107.617 146.155 107.654C146.175 107.69 146.206 107.717 146.242 107.73L149.635 108.86C149.671 108.871 149.709 108.867 149.742 108.849C149.775 108.832 149.802 108.802 149.817 108.764L150.745 106.372C151.605 106.467 152.471 106.451 153.328 106.324L154.32 108.716C154.336 108.754 154.364 108.784 154.399 108.8C154.433 108.817 154.472 108.819 154.507 108.806L157.857 107.574C157.894 107.56 157.925 107.532 157.943 107.494C157.962 107.457 157.968 107.413 157.959 107.371L157.477 104.811C158.226 104.331 158.927 103.762 159.567 103.113L161.615 104.435C161.648 104.455 161.687 104.461 161.724 104.452C161.762 104.444 161.795 104.42 161.818 104.387L163.92 101.217ZM146.832 99.0108C145.609 97.5183 144.962 95.5492 145.029 93.5286C145.096 91.508 145.873 89.598 147.192 88.2109C148.51 86.8237 150.265 86.0707 152.077 86.1144C153.889 86.158 155.613 86.9948 156.876 88.4442L157.005 88.6056C158.24 90.1123 158.889 92.1048 158.807 94.1447C158.726 96.1847 157.921 98.105 156.571 99.4832C155.22 100.861 153.435 101.585 151.606 101.494C149.778 101.403 148.056 100.506 146.821 98.9989L146.832 99.0108Z" stroke="#263238" stroke-miterlimit="10"/>
<path d="M159.149 67.7773C159.134 67.7961 159.125 67.8206 159.125 67.8461C159.125 67.8715 159.134 67.8961 159.149 67.9148L160.441 69.7088C160.457 69.7257 160.478 69.735 160.5 69.735C160.522 69.735 160.543 69.7257 160.559 69.7088L161.743 68.8896C162.126 69.2641 162.547 69.5872 162.998 69.8524L162.756 71.3713C162.753 71.3831 162.752 71.3955 162.753 71.4077C162.755 71.4199 162.758 71.4317 162.764 71.4424C162.769 71.4531 162.777 71.4623 162.786 71.4696C162.794 71.477 162.805 71.4822 162.815 71.4849L164.809 72.1547C164.831 72.1608 164.853 72.1582 164.873 72.1472C164.893 72.1362 164.908 72.1176 164.916 72.0949L165.452 70.6776C165.958 70.7433 166.469 70.7433 166.975 70.6776L167.554 72.0769C167.565 72.098 167.582 72.1142 167.602 72.1228C167.623 72.1315 167.645 72.1322 167.666 72.1248L169.633 71.4072C169.654 71.3979 169.671 71.3809 169.682 71.3591C169.693 71.3373 169.696 71.312 169.692 71.2876L169.413 69.7746C169.853 69.4931 170.264 69.1603 170.641 68.7819L171.842 69.5593C171.858 69.5749 171.879 69.5835 171.9 69.5835C171.922 69.5835 171.943 69.5749 171.959 69.5593L173.203 67.6996C173.211 67.6912 173.218 67.681 173.222 67.6697C173.226 67.6583 173.229 67.6461 173.229 67.6338C173.229 67.6214 173.226 67.6092 173.222 67.5979C173.218 67.5866 173.211 67.5764 173.203 67.568L172.185 66.4916C172.399 65.9854 172.56 65.4538 172.667 64.9069L174.077 64.7753C174.1 64.7741 174.121 64.7637 174.138 64.7462C174.155 64.7287 174.165 64.7051 174.168 64.6797L174.227 62.3594C174.226 62.3354 174.217 62.3127 174.202 62.2952C174.187 62.2777 174.168 62.2665 174.146 62.2637L172.731 62.0305C172.577 61.0605 172.253 60.1339 171.777 59.3036L172.71 58.0598C172.724 58.0405 172.732 58.0161 172.732 57.991C172.732 57.9659 172.724 57.9416 172.71 57.9223L171.284 56.212C171.268 56.1952 171.247 56.1858 171.225 56.1858C171.203 56.1858 171.182 56.1952 171.166 56.212L169.992 57.1867C169.596 56.8729 169.17 56.6082 168.722 56.3974L168.856 54.7708C168.858 54.7449 168.851 54.7192 168.838 54.6984C168.824 54.6775 168.804 54.6629 168.781 54.6572L166.744 54.1907C166.733 54.1871 166.722 54.1859 166.71 54.1872C166.699 54.1886 166.688 54.1924 166.678 54.1986C166.668 54.2047 166.659 54.213 166.652 54.2229C166.645 54.2329 166.64 54.2443 166.637 54.2565L166.176 55.8113C165.692 55.8082 165.208 55.8623 164.734 55.9728L164.016 54.5495C164.011 54.5382 164.005 54.528 163.997 54.5196C163.988 54.5112 163.979 54.5049 163.968 54.5009C163.957 54.497 163.946 54.4956 163.935 54.4967C163.924 54.4979 163.913 54.5016 163.903 54.5077L161.995 55.4226C161.974 55.4331 161.958 55.4515 161.948 55.4745C161.938 55.4974 161.936 55.5236 161.942 55.5482L162.365 57.109C162.074 57.329 161.8 57.575 161.545 57.8445C161.454 57.9402 161.363 58.0419 161.256 58.1674L159.937 57.4797C159.927 57.4737 159.916 57.47 159.905 57.4688C159.894 57.4676 159.883 57.4691 159.872 57.473C159.862 57.4769 159.852 57.4833 159.844 57.4917C159.836 57.5 159.829 57.5102 159.824 57.5216L158.752 59.495C158.739 59.5148 158.732 59.5389 158.732 59.5638C158.732 59.5886 158.739 59.6128 158.752 59.6325L159.883 60.6252C159.706 61.1401 159.582 61.6758 159.514 62.2219L158.104 62.491C158.081 62.4953 158.061 62.5085 158.046 62.5282C158.031 62.548 158.023 62.5729 158.023 62.5986L158.147 64.9129C158.147 64.9388 158.156 64.9638 158.171 64.9827C158.187 65.0016 158.209 65.013 158.232 65.0145L159.637 65.0983C159.762 65.6432 159.942 66.1708 160.173 66.671L159.149 67.7773ZM168.91 66.5813C168.325 67.1964 167.59 67.6042 166.797 67.7531C166.005 67.902 165.19 67.7853 164.457 67.4178C163.724 67.0502 163.105 66.4484 162.679 65.6883C162.252 64.9283 162.037 64.0442 162.061 63.1479C162.085 62.2516 162.347 61.3834 162.813 60.6531C163.28 59.9228 163.93 59.3632 164.681 59.0451C165.433 58.7271 166.252 58.6648 167.035 58.8662C167.818 59.0677 168.53 59.5237 169.081 60.1767C169.817 61.0504 170.213 62.2141 170.18 63.4126C170.148 64.6111 169.691 65.7464 168.91 66.5693V66.5813Z" stroke="#263238" stroke-miterlimit="10"/>
<path d="M233.133 223.903L239.924 210.777L165.892 213.038L151.093 121.071L145.658 135.345L157.589 224.998L233.133 223.903Z" fill="#90CAF9"/>
<path d="M239.924 210.777L165.892 213.038L151.093 119.379L220.151 116.927L221.615 135.028L239.924 210.777Z" fill="white" stroke="#263238" stroke-linecap="round" stroke-linejoin="round"/>
<path d="M239.924 210.777L233.133 223.903L157.589 224.997L145.658 135.345L151.093 119.379" stroke="#263238" stroke-linecap="round" stroke-linejoin="round"/>
<path d="M151.093 119.379C151.093 119.379 156.989 168.475 180.182 203.631L247.632 200.713C247.632 200.713 221.62 150.726 220.157 116.927L151.093 119.379Z" fill="white" stroke="#263238" stroke-linecap="round" stroke-linejoin="round"/>
<path d="M212.899 125.58C212.898 126.039 213.019 126.488 213.247 126.871C213.475 127.253 213.799 127.551 214.179 127.728C214.559 127.904 214.978 127.951 215.381 127.862C215.785 127.774 216.156 127.553 216.447 127.229C216.739 126.905 216.937 126.491 217.018 126.041C217.099 125.591 217.058 125.124 216.901 124.699C216.743 124.275 216.477 123.912 216.135 123.657C215.793 123.402 215.39 123.266 214.979 123.266C214.428 123.266 213.9 123.509 213.51 123.943C213.12 124.377 212.901 124.966 212.899 125.58Z" fill="#263238"/>
<path d="M203.959 126.005C203.958 126.464 204.079 126.913 204.307 127.295C204.535 127.678 204.859 127.976 205.239 128.152C205.619 128.329 206.037 128.376 206.441 128.287C206.845 128.198 207.216 127.978 207.507 127.653C207.798 127.329 207.997 126.916 208.078 126.465C208.158 126.015 208.118 125.548 207.96 125.124C207.803 124.7 207.537 124.337 207.194 124.082C206.852 123.827 206.45 123.69 206.038 123.69C205.766 123.69 205.495 123.749 205.243 123.865C204.991 123.981 204.761 124.151 204.568 124.366C204.375 124.581 204.222 124.836 204.117 125.118C204.013 125.399 203.959 125.7 203.959 126.005Z" fill="#263238"/>
<path d="M188.209 128.862C189.222 128.259 189.606 126.853 189.065 125.723C188.524 124.592 187.265 124.164 186.251 124.768C185.238 125.371 184.855 126.776 185.395 127.907C185.936 129.037 187.196 129.465 188.209 128.862Z" fill="#263238"/>
<path d="M175.963 127.117C175.962 127.576 176.083 128.025 176.311 128.408C176.539 128.79 176.864 129.088 177.243 129.265C177.623 129.441 178.042 129.488 178.445 129.399C178.849 129.31 179.22 129.09 179.512 128.766C179.803 128.441 180.002 128.028 180.082 127.578C180.163 127.127 180.122 126.661 179.965 126.236C179.808 125.812 179.541 125.449 179.199 125.194C178.857 124.939 178.455 124.803 178.043 124.803C177.77 124.802 177.5 124.861 177.248 124.977C176.995 125.093 176.766 125.263 176.573 125.478C176.38 125.693 176.226 125.949 176.122 126.23C176.017 126.511 175.963 126.812 175.963 127.117Z" fill="#263238"/>
<path d="M162.537 128.325C162.516 128.672 162.378 128.997 162.151 129.234C161.923 129.472 161.623 129.604 161.312 129.604C161 129.604 160.7 129.472 160.473 129.234C160.246 128.997 160.108 128.672 160.087 128.325C160.055 126.536 159.899 124.753 159.621 122.991C159.165 120.114 158.27 116.754 156.496 114.798C156.059 114.292 155.533 113.891 154.951 113.62C154.369 113.35 153.744 113.215 153.114 113.225H153.065C152.562 113.195 152.059 113.299 151.598 113.529C151.138 113.759 150.733 114.108 150.418 114.547C148.863 116.754 149.019 121.31 149.405 124.348L147.797 129.132C147.636 128.325 145.374 117.316 148.515 112.855C149.056 112.089 149.749 111.474 150.54 111.058C151.33 110.643 152.197 110.439 153.071 110.463C154.033 110.449 154.988 110.654 155.877 111.065C156.767 111.477 157.572 112.085 158.243 112.855C162.488 117.585 162.537 127.888 162.537 128.325Z" fill="#263238"/>
<path d="M170.909 127.613C170.909 127.975 170.78 128.322 170.551 128.577C170.322 128.833 170.011 128.977 169.687 128.977C169.363 128.977 169.052 128.833 168.823 128.577C168.594 128.322 168.465 127.975 168.465 127.613C168.429 125.824 168.271 124.041 167.993 122.279C167.543 119.397 166.648 116.042 164.874 114.08C164.432 113.565 163.899 113.158 163.308 112.888C162.717 112.617 162.082 112.487 161.443 112.508C160.939 112.482 160.437 112.589 159.977 112.819C159.517 113.05 159.112 113.398 158.795 113.835C157.911 115.091 157.584 117.1 157.53 119.151L155.086 119.235C155.14 116.682 155.569 113.991 156.871 112.149C157.41 111.382 158.102 110.766 158.892 110.35C159.682 109.935 160.548 109.732 161.422 109.757C162.386 109.738 163.343 109.941 164.233 110.353C165.124 110.764 165.929 111.376 166.599 112.149C170.861 116.867 170.909 127.177 170.909 127.613Z" fill="#263238"/>
<path d="M179.474 127.613C179.454 127.96 179.316 128.285 179.088 128.523C178.861 128.76 178.561 128.892 178.249 128.892C177.938 128.892 177.638 128.76 177.411 128.523C177.183 128.285 177.045 127.96 177.025 127.613C176.992 125.824 176.836 124.041 176.558 122.279C176.108 119.397 175.208 116.042 173.434 114.08C172.992 113.566 172.458 113.16 171.867 112.889C171.277 112.618 170.642 112.488 170.003 112.508C169.5 112.479 168.998 112.585 168.538 112.816C168.079 113.047 167.675 113.396 167.361 113.835C166.519 115.031 166.176 116.897 166.101 118.841L163.657 118.93C163.737 116.472 164.193 113.925 165.436 112.149C165.975 111.381 166.667 110.765 167.457 110.35C168.247 109.934 169.114 109.731 169.987 109.757C170.95 109.737 171.907 109.94 172.797 110.351C173.687 110.763 174.491 111.375 175.159 112.149C179.426 116.867 179.474 127.177 179.474 127.613Z" fill="#263238"/>
<path d="M188.098 126.399C188.098 126.761 187.97 127.108 187.741 127.363C187.511 127.619 187.201 127.763 186.876 127.763C186.552 127.763 186.241 127.619 186.012 127.363C185.783 127.108 185.654 126.761 185.654 126.399C185.618 124.61 185.461 122.827 185.183 121.065C184.727 118.189 183.827 114.828 182.063 112.873C181.625 112.366 181.098 111.965 180.515 111.694C179.933 111.424 179.307 111.29 178.676 111.3H178.633C178.129 111.269 177.626 111.373 177.165 111.603C176.705 111.832 176.3 112.182 175.985 112.621C175.015 113.997 174.709 116.287 174.709 118.548L172.27 118.625C172.27 115.904 172.656 112.932 174.061 110.935C174.601 110.17 175.293 109.555 176.083 109.14C176.873 108.725 177.738 108.521 178.611 108.543H178.676C179.629 108.534 180.574 108.742 181.453 109.153C182.332 109.564 183.127 110.17 183.789 110.935C188.05 115.653 188.098 125.963 188.098 126.399Z" fill="#263238"/>
<path d="M197.248 125.838C197.259 126.025 197.236 126.212 197.179 126.389C197.123 126.565 197.034 126.727 196.919 126.864C196.805 127.001 196.666 127.11 196.512 127.184C196.357 127.259 196.191 127.297 196.023 127.297C195.855 127.297 195.689 127.259 195.535 127.184C195.381 127.11 195.242 127.001 195.127 126.864C195.012 126.727 194.924 126.565 194.867 126.389C194.811 126.212 194.787 126.025 194.798 125.838C194.766 124.049 194.61 122.265 194.332 120.503C193.877 117.627 192.981 114.266 191.207 112.311C190.766 111.795 190.233 111.388 189.642 111.116C189.051 110.844 188.416 110.713 187.777 110.732C187.273 110.706 186.771 110.813 186.311 111.044C185.851 111.274 185.446 111.622 185.129 112.06C184.132 113.477 183.837 115.845 183.853 118.159H181.415C181.415 115.414 181.784 112.389 183.205 110.385C183.745 109.62 184.437 109.006 185.227 108.59C186.017 108.175 186.883 107.971 187.755 107.993C188.719 107.975 189.676 108.178 190.567 108.59C191.457 109.001 192.263 109.612 192.933 110.385C197.178 115.097 197.248 125.407 197.248 125.838Z" fill="#263238"/>
<path d="M207.277 126.399C207.277 126.761 207.148 127.108 206.919 127.363C206.689 127.619 206.379 127.763 206.054 127.763C205.73 127.763 205.42 127.619 205.19 127.363C204.961 127.108 204.832 126.761 204.832 126.399C204.8 124.61 204.642 122.827 204.361 121.065C203.905 118.189 203.01 114.828 201.241 112.873C200.803 112.366 200.276 111.965 199.694 111.694C199.111 111.424 198.485 111.29 197.854 111.3H197.811C197.307 111.269 196.804 111.373 196.343 111.603C195.883 111.832 195.478 112.182 195.163 112.621C194.289 113.865 193.952 115.857 193.898 117.902L191.459 117.95C191.513 115.426 191.952 112.765 193.239 110.935C193.779 110.17 194.471 109.555 195.261 109.14C196.051 108.725 196.917 108.521 197.789 108.543H197.854C198.807 108.534 199.752 108.742 200.631 109.153C201.51 109.564 202.305 110.17 202.967 110.935C207.228 115.653 207.277 125.963 207.277 126.399Z" fill="#263238"/>
<path d="M216.362 125.837C216.341 126.184 216.203 126.509 215.976 126.746C215.748 126.984 215.449 127.116 215.137 127.116C214.826 127.116 214.526 126.984 214.298 126.746C214.071 126.509 213.933 126.184 213.912 125.837C213.88 124.048 213.724 122.265 213.446 120.503C212.99 117.627 212.095 114.266 210.321 112.31C209.881 111.794 209.349 111.387 208.759 111.115C208.169 110.843 207.534 110.712 206.896 110.732C206.391 110.705 205.888 110.811 205.427 111.042C204.966 111.272 204.561 111.621 204.243 112.059C203.337 113.345 203.01 115.42 202.972 117.519L200.534 117.615C200.571 115.019 200.995 112.233 202.319 110.373C202.86 109.607 203.553 108.992 204.344 108.577C205.134 108.162 206.001 107.958 206.875 107.981C207.837 107.965 208.793 108.169 209.682 108.58C210.572 108.992 211.377 109.602 212.047 110.373C216.314 115.097 216.362 125.407 216.362 125.837Z" fill="#263238"/>
<path d="M158.838 127.894C158.837 128.353 158.958 128.803 159.186 129.185C159.414 129.567 159.738 129.866 160.118 130.042C160.498 130.219 160.917 130.265 161.32 130.177C161.724 130.088 162.095 129.867 162.387 129.543C162.678 129.219 162.877 128.805 162.957 128.355C163.038 127.905 162.997 127.438 162.84 127.014C162.683 126.589 162.416 126.227 162.074 125.971C161.732 125.716 161.329 125.58 160.918 125.58C160.645 125.579 160.375 125.638 160.122 125.754C159.87 125.87 159.641 126.041 159.448 126.256C159.255 126.471 159.101 126.726 158.997 127.007C158.892 127.288 158.838 127.59 158.838 127.894Z" fill="#263238"/>
<path d="M194.338 126.399C194.338 126.858 194.459 127.307 194.688 127.688C194.917 128.07 195.241 128.367 195.621 128.543C196.001 128.719 196.42 128.764 196.823 128.675C197.226 128.585 197.597 128.364 197.888 128.04C198.179 127.715 198.377 127.302 198.457 126.852C198.537 126.402 198.496 125.935 198.339 125.511C198.181 125.087 197.915 124.725 197.573 124.47C197.231 124.215 196.829 124.079 196.417 124.079C195.866 124.081 195.338 124.326 194.948 124.76C194.559 125.195 194.339 125.784 194.338 126.399Z" fill="#263238"/>
<path d="M167.398 127.428C167.397 127.887 167.518 128.336 167.746 128.718C167.974 129.101 168.298 129.399 168.678 129.576C169.058 129.752 169.476 129.799 169.88 129.71C170.284 129.621 170.655 129.401 170.946 129.077C171.238 128.752 171.436 128.339 171.517 127.889C171.598 127.438 171.557 126.972 171.4 126.547C171.242 126.123 170.976 125.76 170.634 125.505C170.292 125.25 169.889 125.114 169.478 125.114C168.927 125.114 168.399 125.357 168.009 125.791C167.619 126.225 167.399 126.813 167.398 127.428Z" fill="#263238"/>
<path d="M147.062 131.662L150.498 154.918" stroke="#263238" stroke-linecap="round" stroke-linejoin="round"/>
<path d="M151.093 146.695L154.046 165.891" stroke="#263238" stroke-linecap="round" stroke-linejoin="round"/>
<path d="M214.368 218.683L161.524 219.43" stroke="#263238" stroke-linecap="round" stroke-linejoin="round"/>
<path d="M165.892 213.037L157.589 224.997" stroke="#263238" stroke-linecap="round" stroke-linejoin="round"/>
<path d="M158.468 183.957L163.882 215.926L185.381 215.172" stroke="#263238" stroke-linecap="round" stroke-linejoin="round"/>
<path d="M158.468 199.941L153.055 167.972" stroke="#263238" stroke-linecap="round" stroke-linejoin="round"/>
<path d="M237.727 215.029L204.693 215.932" stroke="#263238" stroke-linecap="round" stroke-linejoin="round"/>
<path d="M170.957 176.565L206.038 175.495" stroke="#263238" stroke-linecap="round" stroke-linejoin="round"/>
<path d="M171.981 179.167L210.803 177.983" stroke="#263238" stroke-linecap="round" stroke-linejoin="round"/>
<path d="M173.401 182.312L206.038 181.32" stroke="#263238" stroke-linecap="round" stroke-linejoin="round"/>
<path d="M174.924 185.458L211.195 184.351" stroke="#263238" stroke-linecap="round" stroke-linejoin="round"/>
<path d="M164.836 159.905L202.329 158.757" stroke="#263238" stroke-linecap="round" stroke-linejoin="round"/>
<path d="M166.171 162.273L206.038 161.053" stroke="#263238" stroke-linecap="round" stroke-linejoin="round"/>
<path d="M166.862 164.725L197.854 163.78" stroke="#263238" stroke-linecap="round" stroke-linejoin="round"/>
<path d="M160.838 144.447L196.567 143.359" stroke="#263238" stroke-linecap="round" stroke-linejoin="round"/>
<path d="M161.658 147.06L185.874 146.325" stroke="#263238" stroke-linecap="round" stroke-linejoin="round"/>
<path d="M160.259 141.768L200.593 140.542" stroke="#263238" stroke-linecap="round" stroke-linejoin="round"/>
<path d="M214.049 145.202C215.018 142.798 213.644 139.766 210.979 138.428C208.315 137.091 205.369 137.955 204.4 140.359C203.431 142.763 204.805 145.795 207.47 147.132C210.134 148.47 213.08 147.605 214.049 145.202Z" fill="white" stroke="#263238" stroke-linecap="round" stroke-linejoin="round"/>
<path d="M206.038 141.122L210.342 144.776L215.568 132.888" stroke="#90CAF9" stroke-width="4" stroke-linecap="round" stroke-linejoin="round"/>
<path d="M219.201 161.176C220.17 158.773 218.795 155.74 216.131 154.403C213.466 153.066 210.52 153.93 209.551 156.334C208.582 158.737 209.957 161.77 212.621 163.107C215.286 164.444 218.232 163.58 219.201 161.176Z" fill="white" stroke="#263238" stroke-linecap="round" stroke-linejoin="round"/>
<path d="M225.886 178.204C224.922 180.596 221.974 181.469 219.31 180.136C216.646 178.802 215.274 175.764 216.238 173.366C217.203 170.968 220.151 170.095 222.815 171.435C225.479 172.774 226.857 175.812 225.886 178.204Z" fill="white" stroke="#263238" stroke-linecap="round" stroke-linejoin="round"/>
<path d="M217.889 173.408L222.193 177.062L227.414 165.174" stroke="#90CAF9" stroke-width="4" stroke-linecap="round" stroke-linejoin="round"/>
<path d="M209.169 153.01L220.811 164.498" stroke="#263238" stroke-width="4" stroke-linecap="round" stroke-linejoin="round"/>
<path d="M211.768 166.023L216.935 151.372" stroke="#263238" stroke-width="4" stroke-linecap="round" stroke-linejoin="round"/>
<path d="M149.871 98.8195V219.119C149.871 219.681 149.795 220.239 149.646 220.776C149.331 221.893 148.705 222.869 147.858 223.561C147.012 224.254 145.99 224.627 144.94 224.627H91.6561C91.008 224.627 90.3664 224.484 89.7677 224.207C89.1691 223.931 88.6252 223.525 88.1673 223.013C87.7093 222.502 87.3462 221.895 87.0987 221.226C86.8512 220.558 86.7242 219.842 86.7249 219.119V98.8195C86.7277 97.3614 87.2481 95.9639 88.1723 94.9328C89.0965 93.9017 90.3491 93.3211 91.6561 93.3179H144.945C146.252 93.3195 147.505 93.8998 148.429 94.9314C149.352 95.963 149.871 97.3615 149.871 98.8195Z" fill="#263238"/>
<path opacity="0.1" d="M149.871 98.8195V219.119C149.871 219.681 149.795 220.239 149.646 220.776L87.7272 95.4947C88.1854 94.8176 88.7783 94.2686 89.4592 93.8909C90.1401 93.5131 90.8903 93.317 91.6507 93.3179H144.94C145.587 93.3179 146.229 93.4602 146.827 93.7367C147.425 94.0132 147.969 94.4184 148.427 94.9293C148.885 95.4402 149.248 96.0467 149.496 96.7142C149.743 97.3816 149.871 98.0971 149.871 98.8195Z" fill="white"/>
<path d="M149.871 98.8195V219.119C149.871 219.681 149.795 220.239 149.646 220.776C149.331 221.893 148.705 222.869 147.858 223.561C147.012 224.254 145.99 224.627 144.94 224.627H91.6561C91.008 224.627 90.3664 224.484 89.7677 224.207C89.1691 223.931 88.6252 223.525 88.1673 223.013C87.7093 222.502 87.3462 221.895 87.0987 221.226C86.8512 220.558 86.7242 219.842 86.7249 219.119V98.8195C86.7277 97.3614 87.2481 95.9639 88.1723 94.9328C89.0965 93.9017 90.3491 93.3211 91.6561 93.3179H144.945C146.252 93.3195 147.505 93.8998 148.429 94.9314C149.352 95.963 149.871 97.3615 149.871 98.8195Z" stroke="#263238" stroke-miterlimit="10"/>
<path d="M146.591 105.637H90.1071V209.97H146.591V105.637Z" fill="white"/>
<path d="M94.1055 110.487H92.8298V112.43H94.1055V110.487Z" fill="#263238"/>
<path d="M95.8476 109.141H94.5719V112.43H95.8476V109.141Z" fill="#263238"/>
<path d="M97.7236 107.335H96.4479V112.43H97.7236V107.335Z" fill="#263238"/>
<path d="M144.683 109.141H139.623V112.233H144.683V109.141Z" stroke="#263238" stroke-width="0.821067" stroke-linecap="round" stroke-linejoin="round"/>
<path d="M143.568 109.141H139.623V112.233H143.568V109.141Z" fill="#263238" stroke="#263238" stroke-width="0.725073" stroke-linecap="round" stroke-linejoin="round"/>
<path d="M145.385 110.008H144.672V111.372H145.385V110.008Z" fill="#263238" stroke="#263238" stroke-width="0.725073" stroke-linecap="round" stroke-linejoin="round"/>
<path opacity="0.1" d="M118.295 220.77C119.879 220.77 121.163 219.337 121.163 217.57C121.163 215.803 119.879 214.371 118.295 214.371C116.711 214.371 115.428 215.803 115.428 217.57C115.428 219.337 116.711 220.77 118.295 220.77Z" fill="white"/>
<path d="M146.591 105.637H90.1071V209.97H146.591V105.637Z" stroke="#263238" stroke-miterlimit="10"/>
<path opacity="0.1" d="M101.476 214.449H97.0911V219.34H101.476V214.449Z" stroke="white" stroke-miterlimit="10"/>
<path d="M138.106 131.476C138.101 131.439 138.084 131.404 138.059 131.379C138.033 131.354 138 131.34 137.966 131.339L135.152 131.094C134.79 130.061 134.322 129.077 133.759 128.163L135.206 125.401C135.226 125.371 135.237 125.336 135.237 125.299C135.237 125.262 135.226 125.226 135.206 125.197L132.928 122.656C132.902 122.632 132.87 122.62 132.837 122.62C132.804 122.62 132.772 122.632 132.746 122.656L130.248 124.27C128.807 123.191 127.184 122.452 125.478 122.1L124.765 118.948C124.757 118.912 124.739 118.879 124.712 118.857C124.686 118.834 124.653 118.822 124.62 118.823H121.404C121.371 118.823 121.339 118.835 121.312 118.858C121.286 118.881 121.268 118.912 121.259 118.948L120.541 122.118C119.595 122.327 118.672 122.654 117.791 123.092L115.567 120.946C115.54 120.923 115.507 120.91 115.473 120.91C115.439 120.91 115.406 120.923 115.379 120.946L112.742 123.009C112.715 123.029 112.695 123.059 112.686 123.094C112.676 123.129 112.677 123.166 112.689 123.2L113.761 126.28C113.095 127.055 112.507 127.909 112.008 128.827L109.071 128.486C109.037 128.483 109.004 128.492 108.975 128.511C108.946 128.531 108.923 128.559 108.91 128.594L107.811 131.967C107.8 132.002 107.799 132.041 107.81 132.077C107.82 132.113 107.842 132.143 107.87 132.164L110.303 134.006C110.19 134.769 110.133 135.541 110.132 136.314C110.132 136.601 110.132 136.912 110.164 137.229L107.602 138.832C107.573 138.848 107.549 138.876 107.537 138.91C107.524 138.944 107.522 138.982 107.532 139.017L108.358 142.485C108.364 142.522 108.382 142.555 108.409 142.579C108.436 142.602 108.469 142.613 108.503 142.611L111.397 142.569C111.819 143.544 112.335 144.464 112.935 145.314L111.686 148.208C111.671 148.242 111.666 148.282 111.674 148.319C111.682 148.356 111.702 148.389 111.729 148.412L114.2 150.72C114.226 150.743 114.258 150.756 114.291 150.756C114.324 150.756 114.357 150.743 114.382 150.72L116.698 148.878C117.565 149.425 118.486 149.859 119.442 150.17L119.919 153.303C119.927 153.34 119.944 153.372 119.969 153.397C119.994 153.421 120.026 153.437 120.059 153.441L123.275 153.746C123.301 153.74 123.325 153.727 123.345 153.708C123.366 153.689 123.382 153.665 123.393 153.638L124.325 150.69C125.328 150.582 126.315 150.343 127.268 149.978L129.23 152.197C129.252 152.223 129.281 152.24 129.313 152.246C129.345 152.253 129.377 152.248 129.407 152.233L132.194 150.439C132.222 150.421 132.244 150.393 132.256 150.359C132.269 150.326 132.271 150.289 132.263 150.253L131.524 147.263C132.286 146.526 132.969 145.693 133.561 144.782L136.316 145.344C136.347 145.352 136.381 145.347 136.41 145.329C136.438 145.311 136.46 145.283 136.471 145.248L137.832 141.995C137.847 141.961 137.851 141.923 137.844 141.887C137.837 141.85 137.82 141.817 137.795 141.792L135.651 139.818C135.893 138.729 136.019 137.61 136.026 136.488L138.583 135.19C138.614 135.176 138.64 135.15 138.656 135.118C138.673 135.085 138.679 135.047 138.674 135.01L138.106 131.476ZM123.098 145.135C121.04 145.075 119.085 144.121 117.648 142.476C116.212 140.831 115.408 138.626 115.408 136.329C115.408 134.033 116.212 131.827 117.648 130.182C119.085 128.537 121.04 127.583 123.098 127.524C125.192 127.524 127.2 128.452 128.681 130.103C130.161 131.755 130.993 133.996 130.993 136.332C130.993 138.668 130.161 140.909 128.681 142.561C127.2 144.213 125.192 145.141 123.098 145.141V145.135Z" fill="#90CAF9" stroke="#263238" stroke-linecap="round" stroke-linejoin="round"/>
<path d="M120.739 160.862C120.734 160.821 120.715 160.784 120.686 160.759C120.657 160.733 120.621 160.721 120.584 160.724L118.327 160.88C118.034 160.036 117.653 159.233 117.191 158.488L118.617 156.491C118.64 156.46 118.653 156.42 118.653 156.38C118.653 156.34 118.64 156.3 118.617 156.269L116.248 153.626C116.22 153.6 116.185 153.586 116.149 153.586C116.112 153.586 116.077 153.6 116.049 153.626L114.243 155.229C113.059 154.341 111.726 153.731 110.325 153.435L110.046 150.84C110.044 150.818 110.038 150.797 110.029 150.777C110.019 150.758 110.006 150.741 109.991 150.728C109.975 150.714 109.957 150.705 109.938 150.699C109.919 150.694 109.9 150.693 109.88 150.696H106.53C106.493 150.697 106.458 150.713 106.43 150.74C106.403 150.767 106.385 150.805 106.38 150.845L106.107 153.459C105.34 153.624 104.592 153.885 103.877 154.236L102.312 152.269C102.285 152.241 102.249 152.225 102.213 152.225C102.176 152.225 102.14 152.241 102.113 152.269L99.3638 154.416C99.3336 154.439 99.312 154.473 99.3031 154.513C99.2942 154.553 99.2986 154.595 99.3155 154.631L100.446 156.951C99.9027 157.578 99.4227 158.27 99.0154 159.014L96.7159 158.416C96.6804 158.406 96.6428 158.411 96.6102 158.43C96.5776 158.448 96.5523 158.48 96.5391 158.518L95.4081 161.986C95.4002 162.005 95.3959 162.026 95.3954 162.047C95.395 162.068 95.3983 162.089 95.4054 162.109C95.4124 162.128 95.4229 162.146 95.4363 162.161C95.4496 162.176 95.4656 162.188 95.4831 162.196L97.5896 163.392C97.502 164.017 97.4572 164.648 97.4556 165.281C97.4556 165.502 97.4556 165.736 97.4556 166.011L95.2741 166.974C95.2392 166.987 95.2103 167.015 95.1933 167.052C95.1764 167.089 95.1727 167.131 95.183 167.171L96.0513 170.759C96.0578 170.799 96.0784 170.835 96.1085 170.859C96.1386 170.882 96.1759 170.891 96.2121 170.884L98.5062 170.502C98.854 171.303 99.28 172.059 99.7765 172.756L98.5008 174.897C98.4773 174.929 98.4645 174.969 98.4645 175.011C98.4645 175.052 98.4773 175.092 98.5008 175.124L101.074 177.516C101.101 177.54 101.135 177.552 101.17 177.552C101.205 177.552 101.239 177.54 101.267 177.516L102.923 175.764C103.626 176.207 104.373 176.56 105.147 176.817L105.212 179.34C105.212 179.38 105.225 179.419 105.25 179.448C105.275 179.477 105.31 179.494 105.346 179.496L108.679 179.807C108.716 179.807 108.752 179.793 108.781 179.767C108.809 179.741 108.829 179.704 108.835 179.663L109.285 177.211C110.098 177.115 110.899 176.914 111.67 176.613L113.005 178.611C113.027 178.643 113.058 178.666 113.094 178.674C113.13 178.681 113.167 178.674 113.198 178.652L116.098 176.787C116.129 176.767 116.153 176.734 116.164 176.695C116.175 176.656 116.172 176.614 116.157 176.577L115.272 174.299C115.891 173.7 116.447 173.024 116.928 172.284L119.035 173.067C119.07 173.08 119.108 173.077 119.141 173.061C119.175 173.044 119.202 173.015 119.217 172.977L120.638 169.605C120.652 169.568 120.654 169.526 120.643 169.488C120.632 169.449 120.609 169.417 120.579 169.395L118.681 168.092C118.875 167.207 118.98 166.3 118.992 165.389L121.136 164.671C121.17 164.659 121.2 164.634 121.22 164.6C121.239 164.566 121.247 164.526 121.243 164.486L120.739 160.862ZM114.801 165.275C114.795 166.717 114.407 168.125 113.685 169.322C112.963 170.518 111.939 171.448 110.743 171.995C109.547 172.543 108.232 172.682 106.965 172.396C105.698 172.11 104.536 171.412 103.624 170.389C102.713 169.367 102.094 168.065 101.845 166.65C101.596 165.235 101.728 163.769 102.226 162.438C102.723 161.107 103.563 159.97 104.639 159.171C105.715 158.372 106.979 157.947 108.272 157.95C110.005 157.951 111.667 158.72 112.893 160.086C114.118 161.453 114.808 163.306 114.811 165.239L114.801 165.275Z" fill="#90CAF9" stroke="#263238" stroke-linecap="round" stroke-linejoin="round"/>
<path d="M127.45 187.521H108.513C105.272 187.521 102.644 190.453 102.644 194.069V194.41C102.644 198.026 105.272 200.958 108.513 200.958H127.45C130.692 200.958 133.319 198.026 133.319 194.41V194.069C133.319 190.453 130.692 187.521 127.45 187.521Z" fill="#90CAF9" stroke="#263238" stroke-linecap="round" stroke-linejoin="round"/>
<path d="M108.042 193.902C108.07 193.443 108.217 193.003 108.463 192.635C108.71 192.267 109.047 191.986 109.433 191.825C109.819 191.665 110.239 191.632 110.641 191.731C111.044 191.83 111.412 192.056 111.702 192.383L111.231 192.873C111.095 192.707 110.929 192.576 110.744 192.488C110.56 192.401 110.36 192.359 110.159 192.365C109.97 192.352 109.781 192.382 109.604 192.453C109.426 192.525 109.263 192.636 109.126 192.78C108.988 192.924 108.879 193.099 108.804 193.292C108.729 193.485 108.69 193.694 108.69 193.905C108.69 194.115 108.729 194.324 108.804 194.517C108.879 194.71 108.988 194.885 109.126 195.029C109.263 195.173 109.426 195.284 109.604 195.356C109.781 195.427 109.97 195.457 110.159 195.444C110.361 195.451 110.562 195.408 110.747 195.318C110.932 195.228 111.098 195.094 111.231 194.924L111.702 195.426C111.412 195.753 111.043 195.979 110.64 196.078C110.237 196.176 109.817 196.143 109.431 195.982C109.044 195.821 108.708 195.539 108.461 195.17C108.215 194.801 108.069 194.361 108.042 193.902Z" fill="#263238"/>
<path d="M115.894 191.713V196.096H115.165V194.218H113.134V196.096H112.405V191.713H113.134V193.507H115.165V191.713H115.894Z" fill="#263238"/>
<path d="M119.898 195.414V196.096H116.955V191.713H119.823V192.395H117.679V193.531H119.576V194.201H117.679V195.397L119.898 195.414Z" fill="#263238"/>
<path d="M120.418 193.902C120.446 193.443 120.593 193.003 120.84 192.635C121.086 192.267 121.423 191.986 121.809 191.825C122.196 191.665 122.615 191.632 123.018 191.731C123.42 191.83 123.788 192.056 124.079 192.383L123.607 192.873C123.472 192.706 123.307 192.575 123.121 192.487C122.936 192.399 122.736 192.357 122.535 192.365C122.347 192.352 122.158 192.382 121.98 192.453C121.802 192.525 121.64 192.636 121.502 192.78C121.364 192.924 121.255 193.099 121.18 193.292C121.105 193.485 121.066 193.694 121.066 193.905C121.066 194.115 121.105 194.324 121.18 194.517C121.255 194.71 121.364 194.885 121.502 195.029C121.64 195.173 121.802 195.284 121.98 195.356C122.158 195.427 122.347 195.457 122.535 195.444C122.737 195.452 122.938 195.41 123.124 195.32C123.309 195.23 123.474 195.095 123.607 194.924L124.079 195.426C123.788 195.753 123.419 195.979 123.016 196.078C122.613 196.176 122.194 196.143 121.807 195.982C121.421 195.821 121.084 195.539 120.838 195.17C120.591 194.801 120.445 194.361 120.418 193.902Z" fill="#263238"/>
<path d="M126.137 194.26L125.51 194.948V196.072H124.781V191.689H125.51V193.937L127.456 191.689H128.276L126.625 193.644L128.372 196.072H127.52L126.137 194.26Z" fill="#263238"/>
<path opacity="0.1" d="M136.224 219.669V214.778L140.609 217.224L136.224 219.669Z" stroke="white" stroke-miterlimit="10"/>
</svg>
