<svg width="24" height="24" viewBox="0 0 24 24" fill="none" xmlns="http://www.w3.org/2000/svg">
<path d="M14.7071 16.7071L17.3552 19.3552C17.7113 19.7113 17.7113 20.2887 17.3552 20.6448C15.43 22.57 12.3821 22.7866 10.204 21.153L8.62857 19.9714C6.88504 18.6638 5.33622 17.115 4.02857 15.3714L2.84701 13.796C1.21341 11.6179 1.43001 8.56999 3.35523 6.64477C3.71133 6.28867 4.28867 6.28867 4.64477 6.64477L7.29289 9.29289C7.68342 9.68342 7.68342 10.3166 7.29289 10.7071L6.27175 11.7283C6.10946 11.8905 6.06923 12.1385 6.17187 12.3437C7.35853 14.7171 9.28294 16.6415 11.6563 17.8281C11.8615 17.9308 12.1095 17.8905 12.2717 17.7283L13.2929 16.7071C13.6834 16.3166 14.3166 16.3166 14.7071 16.7071Z" stroke="#33363F" stroke-width="2"/>
</svg>
