<svg width="30" height="30" viewBox="0 0 30 30" fill="none" xmlns="http://www.w3.org/2000/svg">
<path fill-rule="evenodd" clip-rule="evenodd" d="M0.588131 10.0201C0 11.063 0 12.2495 0 14.6225V22.0335C0 25.329 0 26.9768 1.25526 28.0006C2.51051 29.0244 4.53082 29.0244 8.57143 29.0244H8.64286V20.2859C8.64286 18.5875 10.2501 17.5382 11.7857 17.5382H18.2143C19.7499 17.5382 21.3571 18.5875 21.3571 20.2859V29.0244H21.4286C25.4692 29.0244 27.4895 29.0244 28.7447 28.0006C30 26.9768 30 25.329 30 22.0335V14.6225C30 12.2495 30 11.063 29.4119 10.0201C28.8237 8.97714 27.7192 8.20498 25.5102 6.66067L23.3673 5.16262C19.3745 2.37128 17.3781 0.975616 15 0.975616C12.6219 0.975616 10.6255 2.37128 6.63268 5.16262L4.48983 6.66067C2.28078 8.20498 1.17626 8.97714 0.588131 10.0201ZM19.3571 29.0244V20.2859C19.3571 20.0538 19.0456 19.5382 18.2143 19.5382H11.7857C10.9544 19.5382 10.6429 20.0538 10.6429 20.2859V29.0244H19.3571Z" fill="#222222"/>
</svg>
